<?xml version="1.0" standalone="no"?>
<!DOCTYPE svg PUBLIC "-//W3C//DTD SVG 20010904//EN"
 "http://www.w3.org/TR/2001/REC-SVG-20010904/DTD/svg10.dtd">
<svg version="1.0" xmlns="http://www.w3.org/2000/svg"
 width="612.000000pt" height="520.000000pt" viewBox="0 0 612.000000 520.000000"
 preserveAspectRatio="xMidYMid meet">
<g transform="translate(0.000000,520.000000) scale(0.100000,-0.100000)"
fill="#000000" stroke="none">
<path d="M1735 4510 c-42 -17 -145 -141 -247 -295 -135 -206 -143 -219 -174
-285 -14 -30 -38 -80 -53 -110 -39 -76 -76 -179 -101 -280 -12 -47 -25 -93
-31 -102 -5 -10 -9 -37 -9 -61 0 -24 -5 -48 -12 -55 -15 -15 -14 -442 2 -551
34 -236 54 -341 75 -406 7 -22 19 -60 26 -85 7 -25 20 -61 30 -80 10 -19 23
-52 30 -74 18 -59 112 -212 197 -321 61 -78 210 -226 287 -285 28 -21 62 -49
78 -62 161 -136 426 -280 662 -358 61 -20 78 -40 35 -40 -32 0 -193 -39 -232
-57 -36 -15 -50 -33 -27 -33 6 0 25 -11 43 -25 17 -14 36 -29 41 -34 14 -10
58 -21 112 -28 24 -3 40 -9 37 -14 -4 -8 34 -14 59 -10 4 1 16 -3 27 -9 17 -9
111 -25 210 -36 118 -13 213 -25 270 -34 184 -31 357 -45 708 -56 169 -5 222
-4 222 5 0 9 5 9 21 0 13 -6 36 -8 58 -4 52 10 102 17 134 19 15 0 27 6 27 12
0 18 71 28 81 12 6 -9 9 -9 9 -1 0 6 -6 18 -13 25 -12 11 -12 16 1 28 14 13
15 12 10 -1 -5 -12 1 -16 23 -16 37 0 32 7 -53 63 -70 47 -219 114 -332 149
-55 17 -57 19 -35 31 13 6 60 21 104 32 262 68 502 181 695 327 30 23 80 60
111 81 78 54 134 107 216 205 94 113 121 156 129 206 6 37 2 49 -32 105 -42
70 -67 99 -104 118 -30 16 -120 24 -120 10 0 -6 7 -10 15 -10 30 0 14 -19 -21
-26 -24 -4 -32 -9 -23 -15 11 -6 10 -9 -4 -15 -9 -3 -17 -12 -17 -18 0 -7 -11
-18 -25 -24 -14 -7 -31 -24 -38 -39 -6 -15 -22 -38 -34 -51 -11 -12 -24 -35
-28 -50 -7 -28 -19 -42 -75 -81 -27 -19 -32 -21 -27 -7 9 23 0 37 -18 29 -17
-6 -21 -33 -5 -33 6 0 10 -7 10 -15 0 -9 -6 -15 -12 -14 -41 5 -88 -35 -88
-75 0 -18 -4 -26 -12 -23 -7 2 -12 13 -10 25 3 23 -15 39 -29 25 -5 -5 -10
-26 -11 -45 -1 -27 -6 -38 -21 -42 -10 -2 -16 -9 -12 -15 3 -6 -2 -14 -12 -17
-10 -3 -30 -12 -45 -20 -14 -8 -36 -14 -48 -14 -12 0 -35 -15 -53 -35 -22 -25
-33 -32 -39 -23 -6 10 -8 10 -8 1 0 -7 -9 -13 -19 -13 -24 0 -36 -16 -19 -24
7 -3 -1 -3 -19 0 -30 5 -45 -5 -49 -31 0 -5 -2 -16 -2 -23 -1 -8 -9 -11 -20
-7 -12 3 -30 -4 -47 -17 -16 -13 -44 -23 -64 -24 -25 -1 -41 -9 -56 -28 -14
-18 -27 -25 -38 -20 -10 4 -17 1 -17 -6 0 -9 -8 -6 -21 6 -37 33 -105 3 -96
-43 2 -12 1 -20 -3 -18 -9 5 -70 -17 -70 -26 0 -3 -16 -6 -35 -7 -27 -1 -33 2
-28 14 5 14 3 15 -15 5 -11 -6 -27 -9 -34 -6 -8 3 -31 -2 -52 -10 -22 -9 -49
-14 -62 -11 -12 3 -32 2 -44 -2 -21 -8 -21 -9 -5 -25 14 -14 14 -17 2 -17 -9
0 -17 -5 -19 -11 -3 -9 -10 -8 -25 2 -17 10 -24 10 -36 0 -12 -9 -17 -9 -22 0
-6 8 -10 7 -17 -5 -6 -11 -14 -14 -26 -7 -9 4 -22 6 -29 4 -6 -2 -13 4 -16 14
-4 17 -5 17 -6 1 -1 -18 -21 -26 -21 -9 0 19 -55 2 -75 -23 -25 -31 -35 -33
-35 -5 0 12 8 23 20 26 11 3 20 7 20 10 0 9 -29 33 -39 33 -17 0 -72 -36 -65
-43 3 -3 -3 -3 -15 0 -13 3 -21 1 -21 -7 0 -10 -3 -10 -15 0 -8 7 -12 17 -8
23 3 5 1 7 -5 3 -6 -3 -17 1 -25 9 -9 8 -17 11 -19 5 -2 -5 -15 -11 -31 -14
-15 -3 -25 -1 -22 4 3 5 -10 12 -30 16 -37 7 -65 -7 -65 -32 0 -8 -4 -14 -10
-14 -14 0 -13 23 2 38 9 9 5 12 -19 12 -19 0 -33 6 -37 16 -5 14 -17 15 -76 9
-55 -6 -70 -4 -71 6 0 8 -4 6 -8 -5 -7 -18 -8 -18 -25 0 -11 10 -28 20 -40 21
-11 2 -31 13 -43 25 -20 19 -28 21 -53 11 -25 -9 -28 -9 -25 8 3 12 -1 16 -11
12 -8 -3 -20 0 -28 6 -10 9 -17 7 -26 -4 -8 -9 -20 -20 -29 -25 -13 -6 -16 -2
-16 23 0 25 -4 31 -18 29 -10 -2 -25 2 -33 9 -8 6 -23 9 -33 6 -15 -4 -19 0
-18 17 0 11 5 24 10 27 9 7 -73 32 -88 27 -6 -1 -22 6 -37 16 -15 10 -31 15
-36 12 -6 -3 -12 3 -15 14 -3 11 -1 20 4 20 5 0 9 10 9 21 0 21 -1 21 -26 4
-27 -18 -56 -14 -52 7 2 8 -9 14 -25 16 -25 3 -28 6 -22 31 5 24 2 29 -16 34
-14 4 -33 -2 -51 -14 -15 -11 -28 -16 -28 -11 0 6 5 12 12 14 23 8 -2 37 -38
44 -32 6 -35 8 -21 19 16 11 15 13 -1 29 -10 9 -26 16 -35 16 -9 0 -24 11 -33
25 -9 14 -23 25 -30 25 -8 0 -14 5 -14 10 0 6 -8 10 -18 10 -16 0 -76 56 -77
72 0 4 -6 13 -12 20 -17 16 -18 72 -1 62 7 -4 8 -3 4 4 -5 8 -15 8 -32 2 -31
-12 -37 -12 -30 -1 3 5 -1 14 -9 21 -8 7 -15 21 -15 30 0 10 -11 27 -25 38
-14 11 -25 27 -25 36 0 9 -11 22 -25 28 -14 6 -26 14 -26 17 -1 3 -3 17 -5 31
-9 71 -21 105 -39 115 -17 8 -20 18 -17 53 2 31 -1 42 -11 42 -8 0 -20 7 -27
15 -10 12 -10 15 3 15 9 0 19 5 22 11 9 14 -23 49 -40 43 -7 -3 -14 5 -17 21
-4 20 -1 29 16 35 11 5 16 9 9 9 -7 1 -10 8 -7 15 3 8 -4 25 -16 38 -15 16
-20 32 -18 55 2 18 -1 34 -7 36 -5 2 -2 14 9 26 20 22 20 22 -7 47 -15 14 -27
19 -27 13 0 -7 -3 -10 -6 -6 -3 3 4 20 16 37 18 25 19 34 10 45 -7 8 -20 15
-29 16 -13 0 -12 2 3 8 12 5 20 19 21 39 3 31 -9 44 -18 20 -2 -7 -8 -9 -13
-5 -5 5 -1 13 9 18 12 7 15 17 11 33 -3 14 -1 27 6 31 8 5 5 12 -9 22 -15 10
-21 25 -21 54 0 21 -4 39 -10 39 -5 0 -10 7 -10 15 0 8 9 15 20 15 12 0 24 9
29 23 7 19 4 23 -20 30 -29 7 -29 8 -14 37 8 16 15 40 15 53 0 13 3 27 7 31 4
4 6 23 4 42 -1 19 3 42 9 50 7 8 8 14 3 14 -12 0 -5 48 8 56 5 3 9 12 9 21 0
9 9 26 19 37 15 16 21 39 23 92 3 52 9 76 22 89 12 13 16 27 12 47 -3 18 -2
27 4 23 6 -3 10 1 10 9 0 9 4 16 8 16 4 0 13 14 19 30 6 17 18 30 25 30 8 0
15 6 16 13 0 6 4 22 7 35 6 18 4 21 -9 16 -24 -9 -19 14 7 27 28 15 38 30 32
49 -3 9 6 27 18 40 13 14 27 38 31 53 3 15 13 27 21 27 18 0 66 70 58 83 -3 6
-2 7 4 4 16 -10 49 34 69 93 10 30 28 64 40 76 12 11 27 31 33 42 7 12 20 22
30 22 29 0 73 40 68 61 -3 12 0 19 10 19 8 0 13 7 11 17 -4 20 -17 24 -43 13z"/>
<path d="M1860 4363 c-106 -83 -235 -279 -232 -355 1 -29 -4 -40 -26 -54 -61
-40 -137 -142 -162 -218 -6 -20 -18 -43 -26 -51 -11 -10 -12 -20 -6 -31 6 -11
5 -26 -4 -43 -8 -14 -14 -36 -14 -48 0 -12 -5 -34 -12 -50 -6 -15 -12 -30 -13
-33 0 -3 -8 -18 -17 -35 -8 -16 -26 -68 -39 -115 -19 -69 -23 -105 -21 -189 2
-91 6 -112 30 -160 23 -48 45 -69 90 -87 1 -1 -10 -15 -26 -32 -45 -48 -65
-135 -53 -225 6 -39 13 -92 16 -117 12 -91 35 -147 90 -221 54 -73 83 -124 90
-157 9 -45 39 -93 95 -152 34 -36 73 -80 87 -97 14 -18 31 -33 37 -33 7 0 33
-14 59 -30 38 -24 60 -30 105 -31 44 -1 51 -3 32 -9 -21 -7 -22 -8 -5 -9 14
-1 27 -18 43 -51 13 -27 38 -60 55 -72 18 -12 36 -28 40 -35 4 -7 17 -13 28
-13 11 0 22 -7 25 -15 3 -8 14 -17 24 -20 10 -3 21 -14 23 -23 3 -14 6 -12 14
7 9 23 10 23 15 5 3 -14 23 -25 64 -38 32 -10 73 -24 89 -32 17 -7 50 -22 75
-32 107 -47 380 -66 416 -30 15 15 19 14 49 -19 26 -29 45 -38 94 -49 80 -16
314 -9 396 13 64 16 126 42 136 57 4 5 24 6 44 3 61 -10 133 10 250 68 118 58
171 99 181 139 5 22 8 24 30 14 31 -14 194 9 194 27 0 7 26 32 58 56 60 45
170 139 225 193 59 56 118 106 128 106 5 0 9 5 9 11 0 5 -5 7 -11 3 -7 -4 -10
-1 -7 7 3 8 11 14 19 14 8 0 21 5 29 10 25 16 79 90 96 132 9 21 22 42 30 46
8 4 14 12 14 17 0 17 -55 74 -97 101 -42 26 -129 98 -182 150 -30 29 -142 107
-168 116 -10 3 -26 13 -35 20 -9 8 -33 15 -52 16 -22 1 -31 4 -23 9 11 7 10 9
-12 12 -6 0 -39 20 -74 44 -36 23 -68 42 -72 42 -3 0 -13 7 -22 15 -9 10 -24
13 -37 10 -15 -5 -17 -4 -7 3 11 8 1 17 -40 41 -30 17 -65 38 -78 48 -31 24
-78 43 -85 36 -3 -4 -6 -1 -6 5 0 7 -9 12 -20 12 -11 0 -20 7 -20 15 0 8 -6
15 -13 15 -7 0 -20 9 -30 20 -9 11 -13 20 -9 20 18 0 -127 84 -159 91 -19 5
-61 24 -93 43 l-57 34 -25 -25 c-28 -28 -31 -43 -21 -85 9 -36 2 -35 -30 2
-22 27 -30 30 -76 28 -57 -2 -93 -19 -102 -49 -10 -30 -25 -22 -25 12 0 24 -4
30 -16 25 -8 -3 -13 -2 -9 3 7 13 -40 48 -76 56 -21 5 -41 0 -75 -19 -57 -32
-60 -32 -41 -2 15 23 15 27 -6 68 -24 45 -77 80 -123 81 -30 0 -41 13 -17 22
10 3 26 17 36 30 15 21 16 31 7 65 -11 42 -67 102 -112 121 -16 6 -28 18 -28
26 0 10 -6 12 -22 8 -16 -6 -20 -4 -15 9 3 8 1 18 -5 22 -7 4 -8 3 -4 -4 8
-14 -3 -15 -23 -3 -10 7 -6 10 16 15 19 5 44 0 73 -13 24 -10 49 -17 57 -14 7
3 13 0 13 -6 0 -6 -7 -11 -15 -11 -8 0 -15 -4 -15 -10 0 -5 7 -10 16 -10 11 0
14 -5 10 -16 -5 -12 -2 -15 9 -10 9 3 14 2 11 -3 -6 -10 16 -21 41 -21 9 0 13
6 9 15 -8 22 9 18 25 -6 l14 -21 19 21 c17 19 17 21 3 21 -10 0 -17 -5 -17
-10 0 -6 -13 4 -29 22 -29 32 -30 32 -44 13 -14 -18 -15 -18 -12 7 3 22 -3 28
-39 42 -23 9 -48 16 -55 16 -8 0 -11 6 -7 15 4 11 -2 15 -20 15 -26 0 -88 43
-77 53 3 3 -8 18 -23 32 -16 15 -23 23 -15 19 11 -5 13 -3 8 10 -4 10 -7 20
-7 22 0 2 -6 4 -14 4 -8 0 -16 5 -18 10 -2 6 -13 12 -26 13 -13 1 -22 8 -22
18 0 10 -8 20 -17 22 -16 4 -16 5 -1 6 9 0 23 -5 30 -12 7 -8 24 -16 38 -20
14 -3 36 -16 48 -28 13 -11 26 -18 30 -14 3 3 0 10 -8 16 -13 8 -13 10 0 19
11 8 9 9 -10 5 -18 -4 -33 0 -49 14 -13 12 -30 21 -38 21 -7 0 -16 7 -19 15
-4 8 -12 15 -19 15 -30 0 -79 104 -53 112 9 3 9 6 0 12 -7 4 -12 3 -12 -3 0
-11 -41 -1 -85 23 -16 9 -38 16 -47 16 -9 0 -20 5 -23 10 -4 6 -10 8 -14 5 -5
-2 -17 2 -27 11 -18 15 -18 15 1 10 17 -5 21 -1 22 22 0 15 -1 19 -4 10 -2
-10 -9 -18 -15 -18 -6 0 -8 9 -5 21 10 37 -9 69 -40 69 -16 0 -40 11 -55 24
-14 14 -29 23 -32 20 -3 -2 -4 -1 -1 3 3 3 -3 12 -13 19 -9 7 -14 15 -11 19 4
3 13 0 21 -8 14 -15 53 -37 63 -37 4 0 -12 16 -35 35 -30 25 -48 33 -65 29
-15 -4 -24 0 -28 10 -4 11 -1 14 11 10 9 -2 3 2 -14 10 -17 8 -44 29 -60 45
-16 17 -33 31 -39 31 -5 0 -26 -12 -45 -27z m-196 -1433 c15 15 46 12 52 -5 5
-13 35 -28 58 -30 5 0 11 -6 14 -13 2 -7 0 -11 -5 -10 -4 2 -9 -1 -11 -7 -5
-14 -39 -25 -57 -18 -10 3 -15 0 -13 -8 5 -22 -39 -22 -61 0 -12 12 -21 17
-21 11 0 -16 -17 -12 -24 6 -4 10 -2 13 6 8 7 -4 8 -3 4 5 -5 8 -19 10 -37 6
-36 -8 -39 12 -4 25 14 5 25 16 25 24 0 12 6 13 32 5 21 -5 36 -5 42 1z m216
-403 c0 -15 -36 -57 -50 -57 -4 0 -12 -15 -15 -32 -4 -18 -17 -49 -28 -69 -22
-38 -75 -82 -89 -73 -10 6 16 34 31 34 6 0 11 5 11 10 0 15 -33 12 -58 -6 -12
-8 -22 -12 -22 -8 0 5 -5 3 -12 -4 -22 -22 -48 -14 -48 13 0 29 5 31 28 9 15
-15 16 -15 23 2 4 11 1 26 -8 36 -14 15 -10 20 40 52 65 42 68 42 85 16 15
-25 26 -20 46 20 13 27 13 30 -1 30 -8 0 -17 -9 -20 -20 -6 -24 -26 -27 -21
-3 2 9 23 27 48 39 53 27 60 29 60 11z"/>
</g>
</svg>
